<?xml version="1.0" encoding="UTF-8" standalone="no"?>
<!DOCTYPE svg PUBLIC "-//W3C//DTD SVG 1.1//EN"
 "http://www.w3.org/Graphics/SVG/1.1/DTD/svg11.dtd">
<!-- Generated by graphviz version 2.40.1 (20161225.0304)
 -->
<!-- Title: controllers_diagram Pages: 1 -->
<svg width="606pt" height="502pt"
 viewBox="0.00 0.00 606.00 502.00" xmlns="http://www.w3.org/2000/svg" xmlns:xlink="http://www.w3.org/1999/xlink">
<g id="graph0" class="graph" transform="scale(1 1) rotate(0) translate(4 498)">
<title>controllers_diagram</title>
<polygon fill="transparent" stroke="transparent" points="-4,4 -4,-498 602,-498 602,4 -4,4"/>
<!-- _diagram_info -->
<g id="node1" class="node">
<title>_diagram_info</title>
<text text-anchor="start" x="344" y="-351.6" font-family="Times,serif" font-size="13.00" fill="#000000">Controllers diagram</text>
<text text-anchor="start" x="344" y="-337.6" font-family="Times,serif" font-size="13.00" fill="#000000">Date: Apr 26 2020 &#45; 17:04</text>
<text text-anchor="start" x="344" y="-323.6" font-family="Times,serif" font-size="13.00" fill="#000000">Migration version: 20200426205914</text>
<text text-anchor="start" x="344" y="-309.6" font-family="Times,serif" font-size="13.00" fill="#000000">Generated by RailRoady 1.5.3</text>
<text text-anchor="start" x="344" y="-295.6" font-family="Times,serif" font-size="13.00" fill="#000000">http://railroady.prestonlee.com</text>
</g>
<!-- ApplicationController -->
<g id="node2" class="node">
<title>ApplicationController</title>
<path fill="none" stroke="#000000" d="M28,-128.5C28,-128.5 140,-128.5 140,-128.5 146,-128.5 152,-134.5 152,-140.5 152,-140.5 152,-210.5 152,-210.5 152,-216.5 146,-222.5 140,-222.5 140,-222.5 28,-222.5 28,-222.5 22,-222.5 16,-216.5 16,-210.5 16,-210.5 16,-140.5 16,-140.5 16,-134.5 22,-128.5 28,-128.5"/>
<text text-anchor="middle" x="84" y="-207.3" font-family="Times,serif" font-size="14.00" fill="#000000">ApplicationController</text>
<polyline fill="none" stroke="#000000" points="16,-199.5 152,-199.5 "/>
<polyline fill="none" stroke="#000000" points="16,-175.5 152,-175.5 "/>
<polyline fill="none" stroke="#000000" points="16,-151.5 152,-151.5 "/>
<text text-anchor="start" x="24" y="-136.3" font-family="Times,serif" font-size="14.00" fill="#000000">_layout</text>
</g>
<!-- StoriesController -->
<g id="node3" class="node">
<title>StoriesController</title>
<path fill="none" stroke="#000000" d="M204,-128.5C204,-128.5 290,-128.5 290,-128.5 296,-128.5 302,-134.5 302,-140.5 302,-140.5 302,-329.5 302,-329.5 302,-335.5 296,-341.5 290,-341.5 290,-341.5 204,-341.5 204,-341.5 198,-341.5 192,-335.5 192,-329.5 192,-329.5 192,-140.5 192,-140.5 192,-134.5 198,-128.5 204,-128.5"/>
<text text-anchor="middle" x="247" y="-326.3" font-family="Times,serif" font-size="14.00" fill="#000000">StoriesController</text>
<polyline fill="none" stroke="#000000" points="192,-318.5 302,-318.5 "/>
<text text-anchor="start" x="200" y="-303.3" font-family="Times,serif" font-size="14.00" fill="#000000">create</text>
<text text-anchor="start" x="200" y="-288.3" font-family="Times,serif" font-size="14.00" fill="#000000">destroy</text>
<text text-anchor="start" x="200" y="-273.3" font-family="Times,serif" font-size="14.00" fill="#000000">edit</text>
<text text-anchor="start" x="200" y="-258.3" font-family="Times,serif" font-size="14.00" fill="#000000">index</text>
<text text-anchor="start" x="200" y="-243.3" font-family="Times,serif" font-size="14.00" fill="#000000">new</text>
<text text-anchor="start" x="200" y="-228.3" font-family="Times,serif" font-size="14.00" fill="#000000">show</text>
<text text-anchor="start" x="200" y="-213.3" font-family="Times,serif" font-size="14.00" fill="#000000">update</text>
<polyline fill="none" stroke="#000000" points="192,-205.5 302,-205.5 "/>
<polyline fill="none" stroke="#000000" points="192,-181.5 302,-181.5 "/>
<text text-anchor="start" x="200" y="-166.3" font-family="Times,serif" font-size="14.00" fill="#000000">_layout</text>
<text text-anchor="start" x="200" y="-151.3" font-family="Times,serif" font-size="14.00" fill="#000000">set_story</text>
<text text-anchor="start" x="200" y="-136.3" font-family="Times,serif" font-size="14.00" fill="#000000">story_params</text>
</g>
<!-- Users::ConfirmationsController -->
<g id="node4" class="node">
<title>Users::ConfirmationsController</title>
<path fill="none" stroke="#000000" d="M124,-384.5C124,-384.5 289,-384.5 289,-384.5 295,-384.5 301,-390.5 301,-396.5 301,-396.5 301,-466.5 301,-466.5 301,-472.5 295,-478.5 289,-478.5 289,-478.5 124,-478.5 124,-478.5 118,-478.5 112,-472.5 112,-466.5 112,-466.5 112,-396.5 112,-396.5 112,-390.5 118,-384.5 124,-384.5"/>
<text text-anchor="middle" x="206.5" y="-463.3" font-family="Times,serif" font-size="14.00" fill="#000000">Users::ConfirmationsController</text>
<polyline fill="none" stroke="#000000" points="112,-455.5 301,-455.5 "/>
<polyline fill="none" stroke="#000000" points="112,-431.5 301,-431.5 "/>
<polyline fill="none" stroke="#000000" points="112,-407.5 301,-407.5 "/>
<text text-anchor="start" x="120" y="-392.3" font-family="Times,serif" font-size="14.00" fill="#000000">_layout</text>
</g>
<!-- Users::UnlocksController -->
<g id="node5" class="node">
<title>Users::UnlocksController</title>
<path fill="none" stroke="#000000" d="M28,-.5C28,-.5 159,-.5 159,-.5 165,-.5 171,-6.5 171,-12.5 171,-12.5 171,-82.5 171,-82.5 171,-88.5 165,-94.5 159,-94.5 159,-94.5 28,-94.5 28,-94.5 22,-94.5 16,-88.5 16,-82.5 16,-82.5 16,-12.5 16,-12.5 16,-6.5 22,-.5 28,-.5"/>
<text text-anchor="middle" x="93.5" y="-79.3" font-family="Times,serif" font-size="14.00" fill="#000000">Users::UnlocksController</text>
<polyline fill="none" stroke="#000000" points="16,-71.5 171,-71.5 "/>
<polyline fill="none" stroke="#000000" points="16,-47.5 171,-47.5 "/>
<polyline fill="none" stroke="#000000" points="16,-23.5 171,-23.5 "/>
<text text-anchor="start" x="24" y="-8.3" font-family="Times,serif" font-size="14.00" fill="#000000">_layout</text>
</g>
<!-- Users::PasswordsController -->
<g id="node6" class="node">
<title>Users::PasswordsController</title>
<path fill="none" stroke="#000000" d="M348,-32.5C348,-32.5 491,-32.5 491,-32.5 497,-32.5 503,-38.5 503,-44.5 503,-44.5 503,-114.5 503,-114.5 503,-120.5 497,-126.5 491,-126.5 491,-126.5 348,-126.5 348,-126.5 342,-126.5 336,-120.5 336,-114.5 336,-114.5 336,-44.5 336,-44.5 336,-38.5 342,-32.5 348,-32.5"/>
<text text-anchor="middle" x="419.5" y="-111.3" font-family="Times,serif" font-size="14.00" fill="#000000">Users::PasswordsController</text>
<polyline fill="none" stroke="#000000" points="336,-103.5 503,-103.5 "/>
<polyline fill="none" stroke="#000000" points="336,-79.5 503,-79.5 "/>
<polyline fill="none" stroke="#000000" points="336,-55.5 503,-55.5 "/>
<text text-anchor="start" x="344" y="-40.3" font-family="Times,serif" font-size="14.00" fill="#000000">_layout</text>
</g>
<!-- Users::SessionsController -->
<g id="node7" class="node">
<title>Users::SessionsController</title>
<path fill="none" stroke="#000000" d="M12,-256.5C12,-256.5 145,-256.5 145,-256.5 151,-256.5 157,-262.5 157,-268.5 157,-268.5 157,-338.5 157,-338.5 157,-344.5 151,-350.5 145,-350.5 145,-350.5 12,-350.5 12,-350.5 6,-350.5 0,-344.5 0,-338.5 0,-338.5 0,-268.5 0,-268.5 0,-262.5 6,-256.5 12,-256.5"/>
<text text-anchor="middle" x="78.5" y="-335.3" font-family="Times,serif" font-size="14.00" fill="#000000">Users::SessionsController</text>
<polyline fill="none" stroke="#000000" points="0,-327.5 157,-327.5 "/>
<polyline fill="none" stroke="#000000" points="0,-303.5 157,-303.5 "/>
<polyline fill="none" stroke="#000000" points="0,-279.5 157,-279.5 "/>
<text text-anchor="start" x="8" y="-264.3" font-family="Times,serif" font-size="14.00" fill="#000000">_layout</text>
</g>
<!-- Users::OmniauthCallbacksController -->
<g id="node8" class="node">
<title>Users::OmniauthCallbacksController</title>
<path fill="none" stroke="#000000" d="M348,-160.5C348,-160.5 542,-160.5 542,-160.5 548,-160.5 554,-166.5 554,-172.5 554,-172.5 554,-242.5 554,-242.5 554,-248.5 548,-254.5 542,-254.5 542,-254.5 348,-254.5 348,-254.5 342,-254.5 336,-248.5 336,-242.5 336,-242.5 336,-172.5 336,-172.5 336,-166.5 342,-160.5 348,-160.5"/>
<text text-anchor="middle" x="445" y="-239.3" font-family="Times,serif" font-size="14.00" fill="#000000">Users::OmniauthCallbacksController</text>
<polyline fill="none" stroke="#000000" points="336,-231.5 554,-231.5 "/>
<polyline fill="none" stroke="#000000" points="336,-207.5 554,-207.5 "/>
<polyline fill="none" stroke="#000000" points="336,-183.5 554,-183.5 "/>
<text text-anchor="start" x="344" y="-168.3" font-family="Times,serif" font-size="14.00" fill="#000000">_layout</text>
</g>
<!-- Users::RegistrationsController -->
<g id="node9" class="node">
<title>Users::RegistrationsController</title>
<path fill="none" stroke="#000000" d="M428,-400.5C428,-400.5 586,-400.5 586,-400.5 592,-400.5 598,-406.5 598,-412.5 598,-412.5 598,-481.5 598,-481.5 598,-487.5 592,-493.5 586,-493.5 586,-493.5 428,-493.5 428,-493.5 422,-493.5 416,-487.5 416,-481.5 416,-481.5 416,-412.5 416,-412.5 416,-406.5 422,-400.5 428,-400.5"/>
<text text-anchor="middle" x="507" y="-478.3" font-family="Times,serif" font-size="14.00" fill="#000000">Users::RegistrationsController</text>
<polyline fill="none" stroke="#000000" points="416,-470.5 598,-470.5 "/>
<text text-anchor="start" x="424" y="-455.3" font-family="Times,serif" font-size="14.00" fill="#000000">configure_sign_up_params</text>
<polyline fill="none" stroke="#000000" points="416,-447.5 598,-447.5 "/>
<polyline fill="none" stroke="#000000" points="416,-423.5 598,-423.5 "/>
<text text-anchor="start" x="424" y="-408.3" font-family="Times,serif" font-size="14.00" fill="#000000">_layout</text>
</g>
</g>
</svg>
