<?xml version="1.0" encoding="UTF-8" standalone="no"?>
<!DOCTYPE svg PUBLIC "-//W3C//DTD SVG 1.1//EN"
 "http://www.w3.org/Graphics/SVG/1.1/DTD/svg11.dtd">
<!-- Generated by graphviz version 2.40.1 (20161225.0304)
 -->
<!-- Title: models_diagram Pages: 1 -->
<svg width="612pt" height="363pt"
 viewBox="0.00 0.00 612.00 363.00" xmlns="http://www.w3.org/2000/svg" xmlns:xlink="http://www.w3.org/1999/xlink">
<g id="graph0" class="graph" transform="scale(1 1) rotate(0) translate(4 359)">
<title>models_diagram</title>
<polygon fill="transparent" stroke="transparent" points="-4,4 -4,-359 608,-359 608,4 -4,4"/>
<!-- _diagram_info -->
<g id="node1" class="node">
<title>_diagram_info</title>
<text text-anchor="start" x="8" y="-288.6" font-family="Times,serif" font-size="13.00" fill="#000000">Models diagram</text>
<text text-anchor="start" x="8" y="-274.6" font-family="Times,serif" font-size="13.00" fill="#000000">Date: Apr 26 2020 &#45; 17:04</text>
<text text-anchor="start" x="8" y="-260.6" font-family="Times,serif" font-size="13.00" fill="#000000">Migration version: 20200426205914</text>
<text text-anchor="start" x="8" y="-246.6" font-family="Times,serif" font-size="13.00" fill="#000000">Generated by RailRoady 1.5.3</text>
<text text-anchor="start" x="8" y="-232.6" font-family="Times,serif" font-size="13.00" fill="#000000">http://railroady.prestonlee.com</text>
</g>
<!-- ApplicationRecord -->
<g id="node2" class="node">
<title>ApplicationRecord</title>
<ellipse fill="none" stroke="#000000" cx="309" cy="-264" rx="77.1866" ry="18"/>
<text text-anchor="middle" x="309" y="-260.3" font-family="Times,serif" font-size="14.00" fill="#000000">ApplicationRecord</text>
</g>
<!-- Story -->
<g id="node3" class="node">
<title>Story</title>
<path fill="none" stroke="#000000" d="M450.5,-.5C450.5,-.5 557.5,-.5 557.5,-.5 563.5,-.5 569.5,-6.5 569.5,-12.5 569.5,-12.5 569.5,-124.5 569.5,-124.5 569.5,-130.5 563.5,-136.5 557.5,-136.5 557.5,-136.5 450.5,-136.5 450.5,-136.5 444.5,-136.5 438.5,-130.5 438.5,-124.5 438.5,-124.5 438.5,-12.5 438.5,-12.5 438.5,-6.5 444.5,-.5 450.5,-.5"/>
<text text-anchor="middle" x="504" y="-121.3" font-family="Times,serif" font-size="14.00" fill="#000000">Story</text>
<polyline fill="none" stroke="#000000" points="438.5,-113.5 569.5,-113.5 "/>
<text text-anchor="start" x="446.5" y="-98.3" font-family="Times,serif" font-size="14.00" fill="#000000">id :INTEGER</text>
<text text-anchor="start" x="446.5" y="-83.3" font-family="Times,serif" font-size="14.00" fill="#000000">title :varchar</text>
<text text-anchor="start" x="446.5" y="-68.3" font-family="Times,serif" font-size="14.00" fill="#000000">picture :varchar</text>
<text text-anchor="start" x="446.5" y="-53.3" font-family="Times,serif" font-size="14.00" fill="#000000">content :text</text>
<text text-anchor="start" x="446.5" y="-38.3" font-family="Times,serif" font-size="14.00" fill="#000000">created_at :datetime</text>
<text text-anchor="start" x="446.5" y="-23.3" font-family="Times,serif" font-size="14.00" fill="#000000">updated_at :datetime</text>
<text text-anchor="start" x="446.5" y="-8.3" font-family="Times,serif" font-size="14.00" fill="#000000">user_id :integer</text>
</g>
<!-- User -->
<g id="node4" class="node">
<title>User</title>
<path fill="none" stroke="#000000" d="M416,-173.5C416,-173.5 592,-173.5 592,-173.5 598,-173.5 604,-179.5 604,-185.5 604,-185.5 604,-342.5 604,-342.5 604,-348.5 598,-354.5 592,-354.5 592,-354.5 416,-354.5 416,-354.5 410,-354.5 404,-348.5 404,-342.5 404,-342.5 404,-185.5 404,-185.5 404,-179.5 410,-173.5 416,-173.5"/>
<text text-anchor="middle" x="504" y="-339.3" font-family="Times,serif" font-size="14.00" fill="#000000">User</text>
<polyline fill="none" stroke="#000000" points="404,-331.5 604,-331.5 "/>
<text text-anchor="start" x="412" y="-316.3" font-family="Times,serif" font-size="14.00" fill="#000000">id :INTEGER</text>
<text text-anchor="start" x="412" y="-301.3" font-family="Times,serif" font-size="14.00" fill="#000000">name :varchar</text>
<text text-anchor="start" x="412" y="-286.3" font-family="Times,serif" font-size="14.00" fill="#000000">admin :boolean</text>
<text text-anchor="start" x="412" y="-271.3" font-family="Times,serif" font-size="14.00" fill="#000000">created_at :datetime</text>
<text text-anchor="start" x="412" y="-256.3" font-family="Times,serif" font-size="14.00" fill="#000000">updated_at :datetime</text>
<text text-anchor="start" x="412" y="-241.3" font-family="Times,serif" font-size="14.00" fill="#000000">email :varchar</text>
<text text-anchor="start" x="412" y="-226.3" font-family="Times,serif" font-size="14.00" fill="#000000">encrypted_password :varchar</text>
<text text-anchor="start" x="412" y="-211.3" font-family="Times,serif" font-size="14.00" fill="#000000">reset_password_token :varchar</text>
<text text-anchor="start" x="412" y="-196.3" font-family="Times,serif" font-size="14.00" fill="#000000">reset_password_sent_at :datetime</text>
<text text-anchor="start" x="412" y="-181.3" font-family="Times,serif" font-size="14.00" fill="#000000">remember_created_at :datetime</text>
</g>
<!-- User&#45;&gt;Story -->
<g id="edge1" class="edge">
<title>User&#45;&gt;Story</title>
<path fill="none" stroke="#505fcc" d="M504,-165.2622C504,-159.0489 504,-152.841 504,-146.7389"/>
<ellipse fill="none" stroke="#505fcc" cx="504" cy="-169.4037" rx="4" ry="4"/>
<polygon fill="#505fcc" stroke="#505fcc" points="504.0001,-146.587 508.5,-136.5869 504,-141.587 504,-136.587 504,-136.587 504,-136.587 504,-141.587 499.5,-136.587 504.0001,-146.587 504.0001,-146.587"/>
</g>
</g>
</svg>
